# xmcd
#
# Track frame offsets:
#	150
#	15363
#	35461
#	51863
#	73394
#	100564
#	112043
#	122598
#	142808
#	154801
#	173718
#	190871
#	213135
#	227029
#	242218
#
# Disc length: 3565 seconds
#
# Revision: 0
# Processed by: cddbd v1.5PL3 Copyright (c) Steve Scherf et al.
# Submitted via: dBpowerAMP V4.0
#
DISCID=c40deb0f
DTITLE=Varios - Entre dos deltas
DYEAR=1900
DGENRE=
TTITLE0=Eyacule - martires del compas
TTITLE1=Yo naci - kiko veneno
TTITLE2=Vacilon - manzanita
TTITLE3=Del sur - Vargas blues band
TTITLE4=Dos aceras - Los recortaos
TTITLE5=Sureña - Manteca
TTITLE6=Corrido de las monjas - Jose de los reyes
TTITLE7=Alameda - Smash
TTITLE8=No me tengas compasion - La nitra
TTITLE9=Blues de la frontera - Pata negra
TTITLE10=Blues de la bahia - La macanita
TTITLE11=Mojama blues - Nono garcía
TTITLE12=Que va a ser de mi - Currichi
TTITLE13=Blueslerias der gallego - Karakatamba
TTITLE14=Raimundo - Tino di geraldo
EXTD=
EXTT0=
EXTT1=
EXTT2=
EXTT3=
EXTT4=
EXTT5=
EXTT6=
EXTT7=
EXTT8=
EXTT9=
EXTT10=
EXTT11=
EXTT12=
EXTT13=
EXTT14=
PLAYORDER=
